<?xml version="1.0" encoding="UTF-8"?>
<svg xmlns="http://www.w3.org/2000/svg" xmlns:xlink="http://www.w3.org/1999/xlink" width="70" height="70" viewBox="0 0 4714 3361">
<path fill-rule="evenodd" fill="none" fill-opacity="1" d="M 0.980469 0.378906 L 4713.25 0.378906 L 4713.25 3360.371094 L 0.980469 3360.371094 L 0.980469 0.378906 "/>
<path fill-rule="evenodd" fill="rgb(97.65625%, 70.896912%, 10.984802%)" fill-opacity="1" d="M 2357.121094 3051.417969 C 3114.328125 3051.417969 3728.160156 2437.585938 3728.160156 1680.378906 C 3728.160156 923.171875 3114.328125 309.328125 2357.121094 309.328125 C 1599.910156 309.328125 986.074219 923.171875 986.074219 1680.378906 C 986.074219 2437.585938 1599.910156 3051.417969 2357.121094 3051.417969 "/>
<path fill-rule="evenodd" fill="rgb(0.389099%, 80.46875%, 30.589294%)" fill-opacity="1" d="M 2357.121094 3051.417969 C 2800.730469 3051.417969 3195.058594 2840.675781 3445.648438 2513.90625 C 3185.398438 2220.199219 2786.738281 2085.78125 2786.738281 2085.78125 C 2786.738281 2085.78125 2798.960938 1952.949219 2776.058594 1882.71875 C 2753.148438 1812.488281 2615.75 1807.910156 2615.75 1807.910156 L 2621.859375 1714.769531 C 2621.859375 1714.769531 2661.550781 1707.140625 2727.199219 1649.121094 C 2792.851562 1591.109375 2827.96875 1545.300781 2827.96875 1545.300781 C 2827.96875 1545.300781 2921.109375 1552.941406 2976.070312 1473.539062 C 3031.03125 1394.148438 2960.800781 1299.488281 2960.800781 1299.488281 C 2960.800781 1299.488281 3052.410156 1155.96875 2988.28125 838.410156 C 2924.160156 520.839844 2456.96875 615.488281 2456.96875 615.488281 C 2456.96875 615.488281 2163.828125 494.878906 1930.230469 681.148438 C 1696.628906 867.410156 1850.839844 1310.179688 1850.839844 1310.179688 C 1850.839844 1310.179688 1809.621094 1384.988281 1834.039062 1453.691406 C 1858.480469 1522.398438 1960.019531 1533.851562 1960.019531 1533.851562 C 1960.019531 1533.851562 2004.289062 1616.289062 2098.949219 1675.839844 C 2193.609375 1735.378906 2236.371094 1749.121094 2236.371094 1749.121094 L 2231.78125 1805.609375 C 2231.78125 1805.609375 2085.980469 1799.5 2050.101562 1848.359375 C 2014.21875 1897.21875 2029.488281 2101.800781 2029.488281 2101.800781 C 2029.488281 2101.800781 1779.101562 2175.089844 1579.089844 2343.03125 C 1465.910156 2438.066406 1383.550781 2530.152344 1333.351562 2592.210938 C 1584.460938 2873.941406 1950.03125 3051.417969 2357.121094 3051.417969 "/>
<path fill-rule="evenodd" fill="rgb(2.748108%, 71.289062%, 28.637695%)" fill-opacity="1" d="M 2786.738281 2085.78125 C 2786.738281 2085.78125 2798.960938 1952.949219 2776.058594 1882.71875 C 2753.148438 1812.488281 2615.75 1807.910156 2615.75 1807.910156 L 2621.859375 1714.769531 C 2621.859375 1714.769531 2661.449219 1707.160156 2726.949219 1649.339844 C 2521.421875 1530.019531 2422.058594 1484.511719 2210.378906 1590.351562 C 2165.621094 1612.730469 2120.660156 1636.75 2077.070312 1661.058594 C 2084.039062 1666.101562 2091.328125 1671.039062 2098.949219 1675.839844 C 2193.609375 1735.378906 2236.371094 1749.121094 2236.371094 1749.121094 L 2231.78125 1805.609375 C 2231.78125 1805.609375 2085.980469 1799.5 2050.101562 1848.359375 C 2014.21875 1897.21875 2029.488281 2101.800781 2029.488281 2101.800781 C 2029.488281 2101.800781 2137.089844 2182.738281 2424.128906 2176.628906 C 2711.160156 2170.519531 2786.738281 2085.78125 2786.738281 2085.78125 "/>
<path fill-rule="evenodd" fill="rgb(100%, 85.546875%, 82.421875%)" fill-opacity="1" d="M 2616 1803.96875 L 2621.859375 1714.769531 C 2621.859375 1714.769531 2661.550781 1707.140625 2727.199219 1649.121094 C 2792.851562 1591.109375 2827.96875 1545.300781 2827.96875 1545.300781 C 2827.96875 1545.300781 2921.109375 1552.941406 2976.070312 1473.539062 C 3031.03125 1394.148438 2960.800781 1299.488281 2960.800781 1299.488281 C 2960.800781 1299.488281 3052.410156 1155.96875 2988.28125 838.410156 C 2924.160156 520.839844 2456.96875 615.488281 2456.96875 615.488281 C 2456.96875 615.488281 2163.828125 494.878906 1930.230469 681.148438 C 1696.628906 867.410156 1850.839844 1310.179688 1850.839844 1310.179688 C 1850.839844 1310.179688 1809.621094 1384.988281 1834.039062 1453.691406 C 1858.480469 1522.398438 1960.019531 1533.851562 1960.019531 1533.851562 C 1960.019531 1533.851562 2004.289062 1616.289062 2098.949219 1675.839844 C 2193.609375 1735.378906 2236.371094 1749.121094 2236.371094 1749.121094 L 2231.78125 1805.609375 L 2231.71875 1805.609375 L 2231.75 1805.621094 L 2614.980469 1804.101562 L 2616 1803.96875 "/>
<path fill-rule="evenodd" fill="rgb(79.6875%, 55.664062%, 36.083984%)" fill-opacity="1" d="M 2616 1803.96875 L 2621.859375 1714.769531 C 2629.589844 1711.449219 2637.328125 1708.589844 2645.03125 1706.089844 C 2630.011719 1713.210938 2621.859375 1714.769531 2621.859375 1714.769531 C 2431.890625 1796.398438 2228.550781 1746.140625 2228.308594 1746.078125 C 2233.730469 1748.269531 2236.371094 1749.121094 2236.371094 1749.121094 L 2231.78125 1805.609375 L 2231.71875 1805.609375 L 2231.75 1805.621094 L 2614.980469 1804.101562 L 2616 1803.96875 "/>
<path fill-rule="evenodd" fill="rgb(0%, 0%, 0%)" fill-opacity="1" d="M 2960.800781 1299.488281 C 2960.800781 1299.488281 3052.410156 1155.96875 2988.28125 838.410156 C 2924.160156 520.839844 2456.96875 615.488281 2456.96875 615.488281 C 2456.96875 615.488281 2163.828125 494.878906 1930.230469 681.148438 C 1696.628906 867.410156 1850.839844 1310.179688 1850.839844 1310.179688 C 1850.839844 1310.179688 2024.878906 1296.441406 2188.25 1184.988281 C 2351.609375 1073.53125 2391.308594 962.070312 2391.308594 962.070312 C 2391.308594 962.070312 2353.140625 1065.898438 2289.011719 1140.710938 C 2224.890625 1215.519531 2215.730469 1217.050781 2215.730469 1217.050781 C 2215.730469 1217.050781 2347.03125 1162.089844 2455.429688 1070.480469 C 2563.828125 978.871094 2571.46875 926.960938 2571.46875 926.960938 C 2571.46875 926.960938 2615.75 1067.421875 2687.5 1143.761719 C 2759.261719 1220.101562 2802.011719 1250.640625 2802.011719 1250.640625 L 2805.058594 1345.300781 C 2805.058594 1345.300781 2834.078125 1239.941406 2960.800781 1299.488281 "/>
<path fill-rule="evenodd" fill="rgb(0%, 0%, 0%)" fill-opacity="1" d="M 1960.019531 1533.851562 C 1960.019531 1533.851562 2004.289062 1616.289062 2098.949219 1675.839844 C 2193.609375 1735.378906 2236.371094 1749.121094 2236.371094 1749.121094 C 2236.371094 1749.121094 2171.449219 1708.671875 2110.378906 1636.910156 C 2049.308594 1565.160156 2020.300781 1510.191406 2020.300781 1510.191406 C 2020.300781 1510.191406 2006.609375 1523.910156 1960.019531 1533.851562 "/>
<path fill-rule="evenodd" fill="rgb(0%, 0%, 0%)" fill-opacity="1" d="M 2621.859375 1714.769531 C 2621.859375 1714.769531 2661.550781 1707.140625 2727.199219 1649.121094 C 2792.851562 1591.109375 2827.96875 1545.300781 2827.96875 1545.300781 C 2795.910156 1528.5 2806.589844 1513.238281 2806.589844 1513.238281 C 2806.589844 1513.238281 2806.589844 1514.769531 2762.308594 1569.730469 C 2718.039062 1624.699219 2621.859375 1714.769531 2621.859375 1714.769531 "/>
<path fill-rule="evenodd" fill="rgb(99.21875%, 100%, 98.826599%)" fill-opacity="1" d="M 1583.640625 2646.878906 L 1676.78125 2746.882812 L 1785.941406 2644.589844 L 1685.171875 2552.222656 L 1583.640625 2646.878906 "/>
<path fill-rule="evenodd" fill="rgb(99.21875%, 100%, 98.826599%)" fill-opacity="1" d="M 1940.910156 2656.039062 L 2034.039062 2756.042969 L 2143.199219 2653.753906 L 2042.441406 2561.382812 L 1940.910156 2656.039062 "/>
<path fill-rule="evenodd" fill="rgb(99.21875%, 100%, 98.826599%)" fill-opacity="1" d="M 2324.128906 2663.671875 L 2417.261719 2763.679688 L 2526.421875 2661.382812 L 2425.660156 2569.011719 L 2324.128906 2663.671875 "/>
<path fill-rule="evenodd" fill="rgb(99.21875%, 100%, 98.826599%)" fill-opacity="1" d="M 2681.390625 2672.835938 L 2774.53125 2772.839844 L 2883.691406 2670.542969 L 2782.921875 2578.175781 L 2681.390625 2672.835938 "/>
<path fill-rule="evenodd" fill="rgb(99.21875%, 100%, 98.826599%)" fill-opacity="1" d="M 3061.558594 2656.039062 L 3154.691406 2756.042969 L 3263.859375 2653.753906 L 3163.089844 2561.382812 L 3061.558594 2656.039062 "/>
</svg>
