<?xml version="1.0" encoding="UTF-8"?>
<svg xmlns="http://www.w3.org/2000/svg" xmlns:xlink="http://www.w3.org/1999/xlink" width="70" height="70" viewBox="0 0 4714 3361">
<path fill-rule="evenodd" fill="none" fill-opacity="1" d="M 0.984375 0.871094 L 4713.25 0.871094 L 4713.25 3360.859375 L 0.984375 3360.859375 L 0.984375 0.871094 "/>
<path fill-rule="evenodd" fill="rgb(97.65625%, 70.896912%, 10.984802%)" fill-opacity="1" d="M 2357.121094 277.820312 C 3132 277.820312 3760.160156 905.980469 3760.160156 1680.859375 C 3760.160156 2455.746094 3132 3083.90625 2357.121094 3083.90625 C 1582.238281 3083.90625 954.070312 2455.746094 954.070312 1680.859375 C 954.070312 905.980469 1582.238281 277.820312 2357.121094 277.820312 "/>
<path fill-rule="evenodd" fill="rgb(100%, 85.546875%, 82.421875%)" fill-opacity="1" d="M 1873.910156 2845.898438 L 1942.308594 2592.464844 C 1942.308594 2592.464844 2092.011719 2601.253906 2095.800781 2550.039062 C 2099.601562 2498.832031 2097.699219 2447.621094 2097.699219 2447.621094 C 2097.699219 2447.621094 1891 2364.171875 1769.621094 2204.851562 C 1648.238281 2045.539062 1633.070312 1890.011719 1633.070312 1890.011719 C 1633.070312 1890.011719 1340.988281 1874.851562 1318.230469 1715.53125 C 1295.480469 1556.21875 1507.621094 1520.160156 1507.621094 1520.160156 C 1507.621094 1520.160156 1674.800781 1025.171875 1925.140625 956.890625 C 2175.488281 888.621094 3002.410156 1104.820312 3028.960938 1264.140625 C 3055.511719 1423.460938 3106.78125 1517.140625 3106.78125 1517.140625 C 3106.78125 1517.140625 3305.871094 1563.800781 3245.179688 1734.488281 C 3184.480469 1905.191406 2949.300781 1912.78125 2949.300781 1912.78125 C 2949.300781 1912.78125 2903.769531 2174.5 2759.640625 2269.328125 C 2615.511719 2364.171875 2528.261719 2390.722656 2528.261719 2390.722656 C 2528.261719 2390.722656 2524.480469 2527.273438 2543.441406 2553.828125 C 2562.390625 2580.378906 2675.351562 2579.160156 2675.351562 2579.160156 C 2675.351562 2579.160156 2805.160156 2853.480469 2585.160156 2917.960938 C 2365.160156 2982.4375 1873.910156 2845.898438 1873.910156 2845.898438 "/>
<path fill-rule="evenodd" fill="rgb(90.625%, 71.679688%, 65.429688%)" fill-opacity="1" d="M 1873.910156 2845.898438 L 1942.308594 2592.464844 C 1942.308594 2592.464844 2092.011719 2601.253906 2095.800781 2550.039062 C 2099.601562 2498.832031 2097.699219 2447.621094 2097.699219 2447.621094 C 2097.699219 2447.621094 2309.28125 2504.667969 2528.171875 2394.566406 C 2527.730469 2416.859375 2526.371094 2529.921875 2543.441406 2553.828125 C 2562.390625 2580.378906 2675.351562 2579.160156 2675.351562 2579.160156 C 2675.351562 2579.160156 2805.160156 2853.480469 2585.160156 2917.960938 C 2365.160156 2982.4375 1873.910156 2845.898438 1873.910156 2845.898438 Z M 2586.089844 2367.347656 C 2572.101562 2373.757812 2560.5 2378.65625 2551.441406 2382.257812 L 2551.449219 2382.246094 C 2562.308594 2376.191406 2573.910156 2371.257812 2586.089844 2367.347656 "/>
<path fill-rule="evenodd" fill="rgb(95.701599%, 29.026794%, 45.872498%)" fill-opacity="1" d="M 3283.230469 2734.742188 C 3036.140625 2952.058594 2712.039062 3083.90625 2357.121094 3083.90625 C 2010.609375 3083.90625 1693.511719 2958.226562 1448.738281 2750.0625 C 1523.558594 2694.035156 1617.539062 2643.253906 1725.710938 2625.828125 C 1819.351562 2610.746094 1889.871094 2600.046875 1942.308594 2592.464844 C 2008.488281 2650.351562 2114.871094 2708.074219 2283.519531 2728.316406 C 2458.328125 2749.296875 2587.179688 2670.363281 2675.351562 2579.160156 C 2834.609375 2591.515625 3100.03125 2627.847656 3283.230469 2734.742188 "/>
<path fill-rule="evenodd" fill="rgb(2.348328%, 3.921509%, 34.130859%)" fill-opacity="1" d="M 3192.460938 2808.109375 C 3100.679688 2876.234375 3000.300781 2933.453125 2893.230469 2977.773438 C 2894.230469 2857.449219 2901.339844 2717.492188 2908.089844 2608.980469 C 3000.320312 2625.921875 3098.121094 2650.785156 3186.441406 2687.292969 C 3187.539062 2724.726562 3189.660156 2765.742188 3192.460938 2808.109375 "/>
<path fill-rule="evenodd" fill="rgb(2.348328%, 3.921509%, 34.130859%)" fill-opacity="1" d="M 1507.621094 1520.160156 C 1507.621094 1520.160156 1509.53125 1248.929688 1564.53125 1116.171875 C 1619.539062 983.398438 1702.988281 964.441406 1702.988281 964.441406 C 1702.988281 964.441406 1733.328125 750.128906 1945.75 704.609375 C 2158.171875 659.089844 2393.410156 670.511719 2480.640625 613.609375 C 2567.878906 556.710938 2609.601562 514.988281 2609.601562 514.988281 C 2609.601562 514.988281 2590.628906 594.660156 2526.148438 645.859375 C 2461.671875 697.058594 2444.609375 698.96875 2444.609375 698.96875 C 2444.609375 698.96875 2577.359375 670.519531 2639.949219 621.199219 C 2702.53125 571.890625 2776.511719 514.988281 2776.511719 514.988281 C 2776.511719 514.988281 2725.289062 647.738281 2672.191406 717.921875 C 2619.089844 788.101562 2598.21875 799.480469 2598.21875 799.480469 C 2598.21875 799.480469 2727.191406 788.089844 2810.640625 748.269531 C 2894.089844 708.449219 2928.238281 687.589844 2928.238281 687.589844 C 2928.238281 687.589844 2945.300781 841.199219 2899.78125 907.589844 C 2854.261719 973.96875 2854.261719 973.96875 2854.261719 973.96875 C 2854.261719 973.96875 3061.03125 981.558594 3091.378906 1226.21875 C 3114.269531 1410.800781 3110.171875 1489.578125 3106.78125 1517.140625 L 3032.648438 1681.398438 L 2951.101562 1649.160156 C 2951.101562 1649.160156 2892.269531 1233.808594 2814.511719 1148.449219 C 2736.75 1063.101562 2605.871094 1082.078125 2533.808594 1131.390625 C 2461.75 1180.691406 2317.601562 1197.769531 2135.519531 1159.839844 C 1953.449219 1121.910156 1870 1046.039062 1754.300781 1154.140625 C 1638.601562 1262.238281 1615.839844 1688.96875 1615.839844 1688.96875 L 1507.621094 1520.160156 "/>
</svg>
